<?xml version="1.0" standalone="no"?>
<!DOCTYPE svg PUBLIC "-//W3C//DTD SVG 20010904//EN"
 "http://www.w3.org/TR/2001/REC-SVG-20010904/DTD/svg10.dtd">
<svg version="1.0" xmlns="http://www.w3.org/2000/svg"
 width="256.000000pt" height="256.000000pt" viewBox="0 0 256.000000 256.000000"
 preserveAspectRatio="xMidYMid meet">
<metadata>
Created by potrace 1.14, written by Peter Selinger 2001-2017
</metadata>
<g transform="translate(0.000000,256.000000) scale(0.100000,-0.100000)"
fill="#000000" stroke="none">
<path d="M844 2486 c-260 -96 -504 -318 -642 -585 -49 -94 -107 -243 -116
-298 -2 -15 -5 -30 -6 -33 -1 -3 -2 -8 -2 -11 0 -3 -4 -23 -9 -45 -13 -54 -20
-317 -9 -384 18 -113 22 -135 42 -198 84 -272 268 -526 491 -676 109 -73 112
-74 131 -39 14 29 14 30 -17 48 -18 11 -36 23 -42 27 -5 4 -37 28 -70 52 -74
55 -145 123 -145 141 0 7 15 26 33 42 57 51 60 57 34 82 l-24 21 -46 -35 c-25
-19 -51 -35 -57 -35 -32 0 -142 184 -196 326 -14 37 -32 97 -40 133 -36 152
-35 156 46 165 l61 7 -3 37 -4 37 -61 0 c-34 0 -64 3 -67 6 -12 12 -6 161 9
239 3 14 7 39 11 55 22 112 111 331 140 342 10 4 36 -4 65 -20 58 -33 63 -33
78 -1 13 28 9 34 -51 71 -39 24 -42 41 -13 82 51 73 187 206 254 251 13 8 33
23 45 32 39 29 177 98 186 93 5 -3 21 -32 36 -65 25 -57 27 -58 53 -47 14 6
28 12 30 13 2 2 -6 31 -17 66 -11 35 -23 78 -27 96 -4 17 -10 32 -13 31 -4 0
-34 -10 -68 -23z"/>
<path d="M1177 2483 c-4 -3 -23 -7 -42 -9 -36 -3 -156 -31 -163 -38 -2 -2 4
-27 14 -55 12 -39 21 -50 33 -47 47 14 104 27 143 34 67 11 320 7 344 -6 33
-18 46 -1 59 76 5 28 3 32 -17 33 -13 0 -32 3 -43 6 -29 8 -321 13 -328 6z"/>
<path d="M1691 2407 c-5 -12 -11 -36 -15 -53 -7 -31 -6 -31 70 -64 118 -52
262 -153 343 -242 14 -16 29 -28 33 -28 11 0 78 61 78 71 0 15 -103 112 -178
168 -69 53 -211 131 -282 156 -39 14 -41 14 -49 -8z"/>
<path d="M737 2327 c-48 -28 -113 -72 -143 -97 -66 -53 -214 -208 -214 -224 0
-6 18 -24 40 -39 l40 -28 32 38 c101 117 196 197 319 268 l67 38 -15 36 c-27
66 -30 66 -126 8z"/>
<path d="M1230 2279 c-64 -7 -113 -16 -180 -34 -147 -39 -301 -128 -415 -242
-62 -62 -77 -83 -55 -83 18 0 11 -15 -30 -71 -37 -49 -110 -185 -114 -213 -1
-6 -4 -15 -7 -21 -4 -5 -10 -23 -14 -40 -5 -16 -9 -34 -11 -40 -25 -87 -36
-253 -23 -330 4 -22 10 -61 13 -86 15 -110 94 -286 180 -398 25 -33 44 -65 41
-73 -22 -58 313 -266 475 -294 14 -3 31 -7 38 -9 98 -35 471 -13 447 26 -4 5
9 15 27 23 196 85 278 134 371 225 192 185 298 440 292 698 -3 113 -10 159
-42 263 -63 210 -202 395 -386 514 -80 52 -200 106 -267 121 -19 4 -34 15 -37
25 -7 25 -21 29 -112 36 -42 3 -85 6 -96 8 -11 1 -54 -1 -95 -5z m259 -183
c204 -47 398 -182 510 -355 43 -67 101 -198 101 -229 0 -10 3 -22 7 -25 17
-18 24 -241 10 -330 -29 -180 -161 -388 -321 -506 -92 -68 -236 -130 -346
-148 -55 -9 -202 -10 -240 -2 -19 5 -50 10 -68 14 -254 44 -521 293 -596 556
-26 92 -30 120 -29 239 0 180 43 313 151 466 114 160 327 296 505 320 23 4 44
8 47 11 6 6 236 -3 269 -11z"/>
<path d="M1245 2028 c-85 -10 -104 -13 -111 -21 -4 -4 -16 -7 -27 -7 -37 0
-181 -78 -248 -133 -176 -146 -270 -352 -263 -578 4 -149 41 -270 119 -389
292 -442 960 -426 1233 29 43 74 78 163 87 228 4 21 8 45 11 53 6 16 6 155 1
180 -2 8 -7 38 -12 65 -11 73 -52 170 -103 248 -151 232 -416 357 -687 325z
m239 -248 c36 -15 46 -24 38 -32 -7 -7 -20 -7 -44 2 -59 21 -81 24 -168 24
-78 0 -93 -3 -160 -36 -92 -43 -161 -110 -201 -194 -26 -55 -34 -86 -44 -174
-2 -14 -4 -32 -5 -40 -1 -8 -8 -2 -15 15 -13 29 -13 43 0 115 24 144 177 300
332 340 62 15 211 5 267 -20z m259 -282 c-7 -14 -29 3 -40 31 -8 22 -8 32 1
41 8 8 15 1 27 -27 9 -21 15 -41 12 -45z m24 -106 c2 -36 -2 -52 -12 -56 -12
-4 -15 3 -16 32 0 20 -2 46 -4 56 -5 26 4 39 19 27 6 -5 12 -32 13 -59z"/>
<path d="M2235 1946 c-38 -32 -39 -35 -24 -52 40 -46 116 -213 140 -307 26
-105 37 -199 34 -307 -2 -63 -6 -128 -10 -145 -18 -89 -47 -188 -70 -238 -14
-32 -25 -61 -25 -65 0 -10 91 -55 97 -48 16 15 91 230 102 289 0 4 1 8 2 10
13 55 18 297 7 382 -10 79 -34 174 -67 265 -34 91 -120 250 -136 250 -5 0 -28
-16 -50 -34z"/>
<path d="M293 1867 c-69 -99 -147 -389 -144 -536 1 -31 3 -32 43 -33 63 -1 65
0 65 35 0 42 12 152 18 169 2 7 6 24 9 38 12 72 33 130 87 244 10 22 18 40 16
41 -1 1 -21 14 -44 28 -31 19 -43 23 -50 14z"/>
<path d="M191 1147 c-24 -6 -29 -11 -25 -30 3 -12 7 -31 8 -42 17 -107 81
-268 152 -388 61 -102 60 -101 105 -65 22 17 39 35 39 40 0 4 -15 29 -34 55
-40 58 -80 135 -112 220 -24 62 -27 76 -46 169 -12 56 -19 59 -87 41z"/>
<path d="M2180 673 c-53 -75 -191 -206 -276 -262 -42 -28 -81 -52 -86 -53 -9
-3 16 -73 34 -95 31 -38 333 212 426 352 l31 47 -42 29 c-23 16 -45 29 -48 29
-3 0 -21 -21 -39 -47z"/>
<path d="M523 519 c-18 -16 -33 -34 -33 -39 0 -16 142 -129 234 -188 82 -51
262 -130 273 -119 2 3 10 28 18 56 l13 51 -41 11 c-99 26 -303 148 -377 224
-19 19 -39 35 -44 35 -6 0 -26 -14 -43 -31z"/>
<path d="M1668 294 c-10 -9 -148 -43 -208 -50 -61 -8 -195 -8 -264 0 -49 6
-46 9 -61 -76 -7 -35 5 -38 152 -42 151 -4 307 19 414 61 l37 14 -21 50 c-19
45 -34 58 -49 43z"/>
</g>
</svg>
